<svg xmlns="http://www.w3.org/2000/svg" width="300" height="177" viewBox="0 0 300 177">
  <style>
    .title { font: 600 18px "Segoe UI", Ubuntu, Sans-Serif; fill: #2f80ed; }
    .lang-name { font: 400 11px "Segoe UI", Ubuntu, Sans-Serif; fill: #434d58; }
  </style>
  <rect x="0.5" y="0.5" rx="4.5" width="299" height="176" fill="#fffefe" stroke="#e4e2e2" />
  <text x="25" y="33" class="title" fill="#2f80ed" font-size="18" font-weight="600" font-family="'Segoe UI', Ubuntu, Sans-Serif">Most Used Languages</text>
  <defs>
    <clipPath id="bar-clip">
      <rect x="25" y="50" width="250" height="8" rx="5" />
    </clipPath>
  </defs>
  <g clip-path="url(#bar-clip)">
    <rect x="25.0" y="50" width="85.9" height="8" fill="#b07219" />
    <rect x="110.9" y="50" width="44.8" height="8" fill="#f34b7d" />
    <rect x="155.7" y="50" width="30.4" height="8" fill="#555555" />
    <rect x="186.1" y="50" width="28.1" height="8" fill="#00ADD8" />
    <rect x="214.2" y="50" width="24.3" height="8" fill="#3572A5" />
    <rect x="238.5" y="50" width="13.7" height="8" fill="#3178c6" />
    <rect x="252.2" y="50" width="12.2" height="8" fill="#dea584" />
    <rect x="264.4" y="50" width="10.6" height="8" fill="#5e5086" />
  </g>
  <circle cx="30" cy="78" r="5" fill="#b07219" />
  <text x="40" y="82" class="lang-name" fill="#434d58" font-size="11" font-family="'Segoe UI', Ubuntu, Sans-Serif">Java 34.4%</text>
  <circle cx="155" cy="78" r="5" fill="#f34b7d" />
  <text x="165" y="82" class="lang-name" fill="#434d58" font-size="11" font-family="'Segoe UI', Ubuntu, Sans-Serif">C++ 17.9%</text>
  <circle cx="30" cy="98" r="5" fill="#555555" />
  <text x="40" y="102" class="lang-name" fill="#434d58" font-size="11" font-family="'Segoe UI', Ubuntu, Sans-Serif">C 12.2%</text>
  <circle cx="155" cy="98" r="5" fill="#00ADD8" />
  <text x="165" y="102" class="lang-name" fill="#434d58" font-size="11" font-family="'Segoe UI', Ubuntu, Sans-Serif">Go 11.2%</text>
  <circle cx="30" cy="118" r="5" fill="#3572A5" />
  <text x="40" y="122" class="lang-name" fill="#434d58" font-size="11" font-family="'Segoe UI', Ubuntu, Sans-Serif">Python 9.7%</text>
  <circle cx="155" cy="118" r="5" fill="#3178c6" />
  <text x="165" y="122" class="lang-name" fill="#434d58" font-size="11" font-family="'Segoe UI', Ubuntu, Sans-Serif">TypeScript 5.5%</text>
  <circle cx="30" cy="138" r="5" fill="#dea584" />
  <text x="40" y="142" class="lang-name" fill="#434d58" font-size="11" font-family="'Segoe UI', Ubuntu, Sans-Serif">Rust 4.9%</text>
  <circle cx="155" cy="138" r="5" fill="#5e5086" />
  <text x="165" y="142" class="lang-name" fill="#434d58" font-size="11" font-family="'Segoe UI', Ubuntu, Sans-Serif">Haskell 4.2%</text>
</svg>