<svg xmlns="http://www.w3.org/2000/svg" viewBox="0 0 600 400" width="600" height="400">
<rect width="600" height="400" fill="#ffffff" rx="8"/>
<text x="300" y="22" text-anchor="middle" font-family="sans-serif" font-size="12" font-weight="600" fill="#0969da">Tag Co-occurrence Network</text>
<line x1="184.9" y1="244.2" x2="181.5" y2="284.5" stroke="#6a737d" stroke-opacity="0.8" stroke-width="4"/>
<line x1="232.4" y1="288.8" x2="184.9" y2="244.2" stroke="#6a737d" stroke-opacity="0.8" stroke-width="4"/>
<line x1="205.1" y1="323.0" x2="181.5" y2="284.5" stroke="#6a737d" stroke-opacity="0.8" stroke-width="4"/>
<line x1="232.4" y1="288.8" x2="181.5" y2="284.5" stroke="#6a737d" stroke-opacity="0.8" stroke-width="4"/>
<line x1="184.9" y1="244.2" x2="205.1" y2="323.0" stroke="#6a737d" stroke-opacity="0.8" stroke-width="4"/>
<line x1="214.1" y1="205.3" x2="184.9" y2="244.2" stroke="#6a737d" stroke-opacity="0.8" stroke-width="4"/>
<line x1="214.1" y1="205.3" x2="261.1" y2="134.1" stroke="#6a737d" stroke-opacity="0.8" stroke-width="4"/>
<line x1="232.4" y1="288.8" x2="205.1" y2="323.0" stroke="#6a737d" stroke-opacity="0.65" stroke-width="4"/>
<line x1="214.1" y1="205.3" x2="181.5" y2="284.5" stroke="#6a737d" stroke-opacity="0.6" stroke-width="4"/>
<line x1="540.0" y1="60.0" x2="540.0" y2="87.9" stroke="#6a737d" stroke-opacity="0.4" stroke-width="2.5"/>
<line x1="214.1" y1="205.3" x2="205.1" y2="323.0" stroke="#6a737d" stroke-opacity="0.35" stroke-width="2"/>
<line x1="184.9" y1="244.2" x2="192.1" y2="60.0" stroke="#6a737d" stroke-opacity="0.35" stroke-width="2"/>
<line x1="184.9" y1="244.2" x2="138.2" y2="340.0" stroke="#6a737d" stroke-opacity="0.35" stroke-width="2"/>
<line x1="540.0" y1="211.8" x2="490.1" y2="340.0" stroke="#6a737d" stroke-opacity="0.35" stroke-width="2"/>
<line x1="184.9" y1="244.2" x2="60.0" y2="232.3" stroke="#6a737d" stroke-opacity="0.30000000000000004" stroke-width="1.5"/>
<line x1="181.5" y1="284.5" x2="138.2" y2="340.0" stroke="#6a737d" stroke-opacity="0.30000000000000004" stroke-width="1.5"/>
<line x1="214.1" y1="205.3" x2="232.4" y2="288.8" stroke="#6a737d" stroke-opacity="0.30000000000000004" stroke-width="1.5"/>
<line x1="184.9" y1="244.2" x2="261.1" y2="134.1" stroke="#6a737d" stroke-opacity="0.25" stroke-width="1"/>
<line x1="232.4" y1="288.8" x2="138.2" y2="340.0" stroke="#6a737d" stroke-opacity="0.25" stroke-width="1"/>
<line x1="214.1" y1="205.3" x2="60.0" y2="232.3" stroke="#6a737d" stroke-opacity="0.25" stroke-width="1"/>
<line x1="540.0" y1="308.9" x2="490.1" y2="340.0" stroke="#6a737d" stroke-opacity="0.25" stroke-width="1"/>
<line x1="540.0" y1="211.8" x2="540.0" y2="308.9" stroke="#6a737d" stroke-opacity="0.25" stroke-width="1"/>
<circle cx="184.9" cy="244.2" r="18" fill="#e74c3c" opacity="0.85"/>
<text x="184.9" y="223.2" text-anchor="middle" font-family="sans-serif" font-size="9" fill="#24292f" opacity="0.9">Featured</text>
<circle cx="181.5" cy="284.5" r="18" fill="#3498db" opacity="0.85"/>
<text x="181.5" y="263.5" text-anchor="middle" font-family="sans-serif" font-size="9" fill="#24292f" opacity="0.9">Ideas</text>
<circle cx="214.1" cy="205.3" r="15.600000000000001" fill="#2ecc71" opacity="0.85"/>
<text x="214.1" y="186.7" text-anchor="middle" font-family="sans-serif" font-size="9" fill="#24292f" opacity="0.9">Birding</text>
<circle cx="261.1" cy="134.1" r="15.200000000000001" fill="#27ae60" opacity="0.85"/>
<text x="261.1" y="115.9" text-anchor="middle" font-family="sans-serif" font-size="9" fill="#24292f" opacity="0.9">Nature Observations</text>
<circle cx="232.4" cy="288.8" r="14.8" fill="#e67e22" opacity="0.85"/>
<text x="232.4" y="271.0" text-anchor="middle" font-family="sans-serif" font-size="9" fill="#24292f" opacity="0.9">DIY</text>
<circle cx="205.1" cy="323.0" r="12.4" fill="#9b59b6" opacity="0.85"/>
<text x="205.1" y="307.6" text-anchor="middle" font-family="sans-serif" font-size="9" fill="#24292f" opacity="0.9">How-To</text>
<circle cx="192.1" cy="60.0" r="6.4" fill="#e91e63" opacity="0.85"/>
<text x="192.1" y="50.6" text-anchor="middle" font-family="sans-serif" font-size="9" fill="#24292f" opacity="0.9">Music</text>
<circle cx="540.0" cy="211.8" r="6.4" fill="#7f8c8d" opacity="0.85"/>
<text x="540.0" y="202.4" text-anchor="middle" font-family="sans-serif" font-size="9" fill="#24292f" opacity="0.9">3d-printing</text>
<circle cx="540.0" cy="60.0" r="6" fill="#f39c12" opacity="0.85"/>
<text x="540.0" y="51.0" text-anchor="middle" font-family="sans-serif" font-size="9" fill="#24292f" opacity="0.9">Headphones</text>
<circle cx="540.0" cy="87.9" r="6" fill="#d35400" opacity="0.85"/>
<text x="540.0" y="78.9" text-anchor="middle" font-family="sans-serif" font-size="9" fill="#24292f" opacity="0.9">Waxwing Audio</text>
<circle cx="540.0" cy="308.9" r="6" fill="#7f8c8d" opacity="0.85"/>
<text x="540.0" y="299.9" text-anchor="middle" font-family="sans-serif" font-size="9" fill="#24292f" opacity="0.9">hardware</text>
<circle cx="60.0" cy="232.3" r="6" fill="#1abc9c" opacity="0.85"/>
<text x="60.0" y="223.3" text-anchor="middle" font-family="sans-serif" font-size="9" fill="#24292f" opacity="0.9">Photography</text>
<circle cx="138.2" cy="340.0" r="6" fill="#34495e" opacity="0.85"/>
<text x="138.2" y="331.0" text-anchor="middle" font-family="sans-serif" font-size="9" fill="#24292f" opacity="0.9">Reviews</text>
<circle cx="490.1" cy="340.0" r="6" fill="#7f8c8d" opacity="0.85"/>
<text x="490.1" y="331.0" text-anchor="middle" font-family="sans-serif" font-size="9" fill="#24292f" opacity="0.9">maker</text>
<circle cx="540.0" cy="340.0" r="6" fill="#7f8c8d" opacity="0.85"/>
<text x="540.0" y="331.0" text-anchor="middle" font-family="sans-serif" font-size="9" fill="#24292f" opacity="0.9">personal</text>
<circle cx="540.0" cy="255.6" r="6" fill="#7f8c8d" opacity="0.85"/>
<text x="540.0" y="246.6" text-anchor="middle" font-family="sans-serif" font-size="9" fill="#24292f" opacity="0.9">reverse-engineering</text>
<circle cx="60.0" cy="340.0" r="6" fill="#16a085" opacity="0.85"/>
<text x="60.0" y="331.0" text-anchor="middle" font-family="sans-serif" font-size="9" fill="#24292f" opacity="0.9">Fitness</text>
<circle cx="89.6" cy="60.0" r="6" fill="#7f8c8d" opacity="0.85"/>
<text x="89.6" y="51.0" text-anchor="middle" font-family="sans-serif" font-size="9" fill="#24292f" opacity="0.9">zig</text>
<circle cx="60.0" cy="114.3" r="6" fill="#7f8c8d" opacity="0.85"/>
<text x="60.0" y="105.3" text-anchor="middle" font-family="sans-serif" font-size="9" fill="#24292f" opacity="0.9">weeknotes</text>
<circle cx="60.0" cy="60.0" r="6" fill="#7f8c8d" opacity="0.85"/>
<text x="60.0" y="51.0" text-anchor="middle" font-family="sans-serif" font-size="9" fill="#24292f" opacity="0.9">homelab</text>
<text x="300" y="392" text-anchor="middle" font-family="sans-serif" font-size="8" fill="#24292f" opacity="0.5">20 tags, 22 co-occurrence edges (min weight: 2)</text>
</svg>