<svg xmlns="http://www.w3.org/2000/svg" viewBox="0 0 600 400" width="600" height="400">
<rect width="600" height="400" fill="#0d1117" rx="8"/>
<text x="300" y="22" text-anchor="middle" font-family="sans-serif" font-size="12" font-weight="600" fill="#58a6ff">Tag Co-occurrence Network</text>
<line x1="102.5" y1="236.7" x2="60.0" y2="235.1" stroke="#8b949e" stroke-opacity="0.8" stroke-width="4"/>
<line x1="60.0" y1="269.7" x2="102.5" y2="236.7" stroke="#8b949e" stroke-opacity="0.8" stroke-width="4"/>
<line x1="66.5" y1="200.9" x2="60.0" y2="235.1" stroke="#8b949e" stroke-opacity="0.8" stroke-width="4"/>
<line x1="60.0" y1="269.7" x2="60.0" y2="235.1" stroke="#8b949e" stroke-opacity="0.8" stroke-width="4"/>
<line x1="102.5" y1="236.7" x2="66.5" y2="200.9" stroke="#8b949e" stroke-opacity="0.8" stroke-width="4"/>
<line x1="60.0" y1="168.0" x2="102.5" y2="236.7" stroke="#8b949e" stroke-opacity="0.8" stroke-width="4"/>
<line x1="60.0" y1="168.0" x2="60.0" y2="100.7" stroke="#8b949e" stroke-opacity="0.8" stroke-width="4"/>
<line x1="60.0" y1="269.7" x2="66.5" y2="200.9" stroke="#8b949e" stroke-opacity="0.65" stroke-width="4"/>
<line x1="60.0" y1="168.0" x2="60.0" y2="235.1" stroke="#8b949e" stroke-opacity="0.6" stroke-width="4"/>
<line x1="436.8" y1="340.0" x2="356.6" y2="340.0" stroke="#8b949e" stroke-opacity="0.4" stroke-width="2.5"/>
<line x1="60.0" y1="168.0" x2="66.5" y2="200.9" stroke="#8b949e" stroke-opacity="0.35" stroke-width="2"/>
<line x1="102.5" y1="236.7" x2="238.4" y2="297.5" stroke="#8b949e" stroke-opacity="0.35" stroke-width="2"/>
<line x1="102.5" y1="236.7" x2="140.5" y2="340.0" stroke="#8b949e" stroke-opacity="0.35" stroke-width="2"/>
<line x1="540.0" y1="60.0" x2="517.6" y2="60.0" stroke="#8b949e" stroke-opacity="0.35" stroke-width="2"/>
<line x1="102.5" y1="236.7" x2="86.5" y2="340.0" stroke="#8b949e" stroke-opacity="0.30000000000000004" stroke-width="1.5"/>
<line x1="60.0" y1="235.1" x2="140.5" y2="340.0" stroke="#8b949e" stroke-opacity="0.30000000000000004" stroke-width="1.5"/>
<line x1="60.0" y1="168.0" x2="60.0" y2="269.7" stroke="#8b949e" stroke-opacity="0.30000000000000004" stroke-width="1.5"/>
<line x1="102.5" y1="236.7" x2="60.0" y2="100.7" stroke="#8b949e" stroke-opacity="0.25" stroke-width="1"/>
<line x1="60.0" y1="269.7" x2="140.5" y2="340.0" stroke="#8b949e" stroke-opacity="0.25" stroke-width="1"/>
<line x1="60.0" y1="168.0" x2="86.5" y2="340.0" stroke="#8b949e" stroke-opacity="0.25" stroke-width="1"/>
<line x1="464.9" y1="60.0" x2="517.6" y2="60.0" stroke="#8b949e" stroke-opacity="0.25" stroke-width="1"/>
<line x1="540.0" y1="60.0" x2="464.9" y2="60.0" stroke="#8b949e" stroke-opacity="0.25" stroke-width="1"/>
<circle cx="102.5" cy="236.7" r="18" fill="#e74c3c" opacity="0.85"/>
<text x="102.5" y="215.7" text-anchor="middle" font-family="sans-serif" font-size="9" fill="#c9d1d9" opacity="0.9">Featured</text>
<circle cx="60.0" cy="235.1" r="18" fill="#3498db" opacity="0.85"/>
<text x="60.0" y="214.1" text-anchor="middle" font-family="sans-serif" font-size="9" fill="#c9d1d9" opacity="0.9">Ideas</text>
<circle cx="60.0" cy="168.0" r="15.600000000000001" fill="#2ecc71" opacity="0.85"/>
<text x="60.0" y="149.4" text-anchor="middle" font-family="sans-serif" font-size="9" fill="#c9d1d9" opacity="0.9">Birding</text>
<circle cx="60.0" cy="100.7" r="15.200000000000001" fill="#27ae60" opacity="0.85"/>
<text x="60.0" y="82.5" text-anchor="middle" font-family="sans-serif" font-size="9" fill="#c9d1d9" opacity="0.9">Nature Observations</text>
<circle cx="60.0" cy="269.7" r="14.8" fill="#e67e22" opacity="0.85"/>
<text x="60.0" y="251.9" text-anchor="middle" font-family="sans-serif" font-size="9" fill="#c9d1d9" opacity="0.9">DIY</text>
<circle cx="66.5" cy="200.9" r="12.4" fill="#9b59b6" opacity="0.85"/>
<text x="66.5" y="185.5" text-anchor="middle" font-family="sans-serif" font-size="9" fill="#c9d1d9" opacity="0.9">How-To</text>
<circle cx="238.4" cy="297.5" r="6.4" fill="#e91e63" opacity="0.85"/>
<text x="238.4" y="288.1" text-anchor="middle" font-family="sans-serif" font-size="9" fill="#c9d1d9" opacity="0.9">Music</text>
<circle cx="540.0" cy="60.0" r="6.4" fill="#7f8c8d" opacity="0.85"/>
<text x="540.0" y="50.6" text-anchor="middle" font-family="sans-serif" font-size="9" fill="#c9d1d9" opacity="0.9">3d-printing</text>
<circle cx="436.8" cy="340.0" r="6" fill="#f39c12" opacity="0.85"/>
<text x="436.8" y="331.0" text-anchor="middle" font-family="sans-serif" font-size="9" fill="#c9d1d9" opacity="0.9">Headphones</text>
<circle cx="356.6" cy="340.0" r="6" fill="#d35400" opacity="0.85"/>
<text x="356.6" y="331.0" text-anchor="middle" font-family="sans-serif" font-size="9" fill="#c9d1d9" opacity="0.9">Waxwing Audio</text>
<circle cx="464.9" cy="60.0" r="6" fill="#7f8c8d" opacity="0.85"/>
<text x="464.9" y="51.0" text-anchor="middle" font-family="sans-serif" font-size="9" fill="#c9d1d9" opacity="0.9">hardware</text>
<circle cx="86.5" cy="340.0" r="6" fill="#1abc9c" opacity="0.85"/>
<text x="86.5" y="331.0" text-anchor="middle" font-family="sans-serif" font-size="9" fill="#c9d1d9" opacity="0.9">Photography</text>
<circle cx="140.5" cy="340.0" r="6" fill="#34495e" opacity="0.85"/>
<text x="140.5" y="331.0" text-anchor="middle" font-family="sans-serif" font-size="9" fill="#c9d1d9" opacity="0.9">Reviews</text>
<circle cx="517.6" cy="60.0" r="6" fill="#7f8c8d" opacity="0.85"/>
<text x="517.6" y="51.0" text-anchor="middle" font-family="sans-serif" font-size="9" fill="#c9d1d9" opacity="0.9">maker</text>
<circle cx="540.0" cy="340.0" r="6" fill="#7f8c8d" opacity="0.85"/>
<text x="540.0" y="331.0" text-anchor="middle" font-family="sans-serif" font-size="9" fill="#c9d1d9" opacity="0.9">personal</text>
<circle cx="60.0" cy="60.0" r="6" fill="#7f8c8d" opacity="0.85"/>
<text x="60.0" y="51.0" text-anchor="middle" font-family="sans-serif" font-size="9" fill="#c9d1d9" opacity="0.9">reverse-engineering</text>
<circle cx="60.0" cy="340.0" r="6" fill="#16a085" opacity="0.85"/>
<text x="60.0" y="331.0" text-anchor="middle" font-family="sans-serif" font-size="9" fill="#c9d1d9" opacity="0.9">Fitness</text>
<circle cx="540.0" cy="171.2" r="6" fill="#7f8c8d" opacity="0.85"/>
<text x="540.0" y="162.2" text-anchor="middle" font-family="sans-serif" font-size="9" fill="#c9d1d9" opacity="0.9">zig</text>
<circle cx="540.0" cy="291.4" r="6" fill="#7f8c8d" opacity="0.85"/>
<text x="540.0" y="282.4" text-anchor="middle" font-family="sans-serif" font-size="9" fill="#c9d1d9" opacity="0.9">weeknotes</text>
<circle cx="338.3" cy="60.0" r="6" fill="#7f8c8d" opacity="0.85"/>
<text x="338.3" y="51.0" text-anchor="middle" font-family="sans-serif" font-size="9" fill="#c9d1d9" opacity="0.9">homelab</text>
<text x="300" y="392" text-anchor="middle" font-family="sans-serif" font-size="8" fill="#c9d1d9" opacity="0.5">20 tags, 22 co-occurrence edges (min weight: 2)</text>
</svg>