<svg xmlns="http://www.w3.org/2000/svg" viewBox="0 0 600 400" width="600" height="400">
<rect width="600" height="400" fill="#0d1117" rx="8"/>
<text x="300" y="22" text-anchor="middle" font-family="sans-serif" font-size="12" font-weight="600" fill="#58a6ff">Tag Co-occurrence Network</text>
<line x1="449.3" y1="296.7" x2="409.8" y2="301.0" stroke="#8b949e" stroke-opacity="0.8" stroke-width="4"/>
<line x1="416.2" y1="340.0" x2="449.3" y2="296.7" stroke="#8b949e" stroke-opacity="0.8" stroke-width="4"/>
<line x1="399.8" y1="261.6" x2="409.8" y2="301.0" stroke="#8b949e" stroke-opacity="0.8" stroke-width="4"/>
<line x1="416.2" y1="340.0" x2="409.8" y2="301.0" stroke="#8b949e" stroke-opacity="0.8" stroke-width="4"/>
<line x1="449.3" y1="296.7" x2="399.8" y2="261.6" stroke="#8b949e" stroke-opacity="0.8" stroke-width="4"/>
<line x1="482.5" y1="241.4" x2="449.3" y2="296.7" stroke="#8b949e" stroke-opacity="0.8" stroke-width="4"/>
<line x1="482.5" y1="241.4" x2="540.0" y2="181.3" stroke="#8b949e" stroke-opacity="0.8" stroke-width="4"/>
<line x1="416.2" y1="340.0" x2="399.8" y2="261.6" stroke="#8b949e" stroke-opacity="0.65" stroke-width="4"/>
<line x1="482.5" y1="241.4" x2="409.8" y2="301.0" stroke="#8b949e" stroke-opacity="0.6" stroke-width="4"/>
<line x1="60.0" y1="60.0" x2="94.2" y2="60.0" stroke="#8b949e" stroke-opacity="0.4" stroke-width="2.5"/>
<line x1="482.5" y1="241.4" x2="399.8" y2="261.6" stroke="#8b949e" stroke-opacity="0.35" stroke-width="2"/>
<line x1="449.3" y1="296.7" x2="540.0" y2="281.5" stroke="#8b949e" stroke-opacity="0.35" stroke-width="2"/>
<line x1="449.3" y1="296.7" x2="327.7" y2="340.0" stroke="#8b949e" stroke-opacity="0.35" stroke-width="2"/>
<line x1="60.0" y1="166.8" x2="60.0" y2="304.1" stroke="#8b949e" stroke-opacity="0.35" stroke-width="2"/>
<line x1="449.3" y1="296.7" x2="540.0" y2="340.0" stroke="#8b949e" stroke-opacity="0.30000000000000004" stroke-width="1.5"/>
<line x1="409.8" y1="301.0" x2="327.7" y2="340.0" stroke="#8b949e" stroke-opacity="0.30000000000000004" stroke-width="1.5"/>
<line x1="482.5" y1="241.4" x2="416.2" y2="340.0" stroke="#8b949e" stroke-opacity="0.30000000000000004" stroke-width="1.5"/>
<line x1="449.3" y1="296.7" x2="540.0" y2="181.3" stroke="#8b949e" stroke-opacity="0.25" stroke-width="1"/>
<line x1="416.2" y1="340.0" x2="327.7" y2="340.0" stroke="#8b949e" stroke-opacity="0.25" stroke-width="1"/>
<line x1="482.5" y1="241.4" x2="540.0" y2="340.0" stroke="#8b949e" stroke-opacity="0.25" stroke-width="1"/>
<line x1="60.0" y1="214.8" x2="60.0" y2="304.1" stroke="#8b949e" stroke-opacity="0.25" stroke-width="1"/>
<line x1="60.0" y1="166.8" x2="60.0" y2="214.8" stroke="#8b949e" stroke-opacity="0.25" stroke-width="1"/>
<circle cx="449.3" cy="296.7" r="18" fill="#e74c3c" opacity="0.85"/>
<text x="449.3" y="275.7" text-anchor="middle" font-family="sans-serif" font-size="9" fill="#c9d1d9" opacity="0.9">Featured</text>
<circle cx="409.8" cy="301.0" r="18" fill="#3498db" opacity="0.85"/>
<text x="409.8" y="280.0" text-anchor="middle" font-family="sans-serif" font-size="9" fill="#c9d1d9" opacity="0.9">Ideas</text>
<circle cx="482.5" cy="241.4" r="15.600000000000001" fill="#2ecc71" opacity="0.85"/>
<text x="482.5" y="222.8" text-anchor="middle" font-family="sans-serif" font-size="9" fill="#c9d1d9" opacity="0.9">Birding</text>
<circle cx="540.0" cy="181.3" r="15.200000000000001" fill="#27ae60" opacity="0.85"/>
<text x="540.0" y="163.1" text-anchor="middle" font-family="sans-serif" font-size="9" fill="#c9d1d9" opacity="0.9">Nature Observations</text>
<circle cx="416.2" cy="340.0" r="14.8" fill="#e67e22" opacity="0.85"/>
<text x="416.2" y="322.2" text-anchor="middle" font-family="sans-serif" font-size="9" fill="#c9d1d9" opacity="0.9">DIY</text>
<circle cx="399.8" cy="261.6" r="12.4" fill="#9b59b6" opacity="0.85"/>
<text x="399.8" y="246.2" text-anchor="middle" font-family="sans-serif" font-size="9" fill="#c9d1d9" opacity="0.9">How-To</text>
<circle cx="540.0" cy="281.5" r="6.4" fill="#e91e63" opacity="0.85"/>
<text x="540.0" y="272.1" text-anchor="middle" font-family="sans-serif" font-size="9" fill="#c9d1d9" opacity="0.9">Music</text>
<circle cx="60.0" cy="166.8" r="6.4" fill="#7f8c8d" opacity="0.85"/>
<text x="60.0" y="157.4" text-anchor="middle" font-family="sans-serif" font-size="9" fill="#c9d1d9" opacity="0.9">3d-printing</text>
<circle cx="60.0" cy="60.0" r="6" fill="#f39c12" opacity="0.85"/>
<text x="60.0" y="51.0" text-anchor="middle" font-family="sans-serif" font-size="9" fill="#c9d1d9" opacity="0.9">Headphones</text>
<circle cx="94.2" cy="60.0" r="6" fill="#d35400" opacity="0.85"/>
<text x="94.2" y="51.0" text-anchor="middle" font-family="sans-serif" font-size="9" fill="#c9d1d9" opacity="0.9">Waxwing Audio</text>
<circle cx="60.0" cy="214.8" r="6" fill="#7f8c8d" opacity="0.85"/>
<text x="60.0" y="205.8" text-anchor="middle" font-family="sans-serif" font-size="9" fill="#c9d1d9" opacity="0.9">hardware</text>
<circle cx="540.0" cy="340.0" r="6" fill="#1abc9c" opacity="0.85"/>
<text x="540.0" y="331.0" text-anchor="middle" font-family="sans-serif" font-size="9" fill="#c9d1d9" opacity="0.9">Photography</text>
<circle cx="327.7" cy="340.0" r="6" fill="#34495e" opacity="0.85"/>
<text x="327.7" y="331.0" text-anchor="middle" font-family="sans-serif" font-size="9" fill="#c9d1d9" opacity="0.9">Reviews</text>
<circle cx="60.0" cy="304.1" r="6" fill="#7f8c8d" opacity="0.85"/>
<text x="60.0" y="295.1" text-anchor="middle" font-family="sans-serif" font-size="9" fill="#c9d1d9" opacity="0.9">maker</text>
<circle cx="540.0" cy="80.9" r="6" fill="#7f8c8d" opacity="0.85"/>
<text x="540.0" y="71.9" text-anchor="middle" font-family="sans-serif" font-size="9" fill="#c9d1d9" opacity="0.9">personal</text>
<circle cx="518.3" cy="340.0" r="6" fill="#7f8c8d" opacity="0.85"/>
<text x="518.3" y="331.0" text-anchor="middle" font-family="sans-serif" font-size="9" fill="#c9d1d9" opacity="0.9">reverse-engineering</text>
<circle cx="540.0" cy="60.0" r="6" fill="#16a085" opacity="0.85"/>
<text x="540.0" y="51.0" text-anchor="middle" font-family="sans-serif" font-size="9" fill="#c9d1d9" opacity="0.9">Fitness</text>
<circle cx="207.9" cy="60.0" r="6" fill="#7f8c8d" opacity="0.85"/>
<text x="207.9" y="51.0" text-anchor="middle" font-family="sans-serif" font-size="9" fill="#c9d1d9" opacity="0.9">zig</text>
<circle cx="60.0" cy="268.2" r="6" fill="#7f8c8d" opacity="0.85"/>
<text x="60.0" y="259.2" text-anchor="middle" font-family="sans-serif" font-size="9" fill="#c9d1d9" opacity="0.9">weeknotes</text>
<circle cx="60.0" cy="340.0" r="6" fill="#7f8c8d" opacity="0.85"/>
<text x="60.0" y="331.0" text-anchor="middle" font-family="sans-serif" font-size="9" fill="#c9d1d9" opacity="0.9">homelab</text>
<text x="300" y="392" text-anchor="middle" font-family="sans-serif" font-size="8" fill="#c9d1d9" opacity="0.5">20 tags, 22 co-occurrence edges (min weight: 2)</text>
</svg>