<svg xmlns="http://www.w3.org/2000/svg" viewBox="0 0 600 400" width="600" height="400">
<rect width="600" height="400" fill="#0d1117" rx="8"/>
<text x="300" y="22" text-anchor="middle" font-family="sans-serif" font-size="12" font-weight="600" fill="#58a6ff">Tag Co-occurrence Network</text>
<line x1="482.9" y1="263.5" x2="465.3" y2="299.8" stroke="#8b949e" stroke-opacity="0.8" stroke-width="4"/>
<line x1="422.8" y1="299.0" x2="482.9" y2="263.5" stroke="#8b949e" stroke-opacity="0.8" stroke-width="4"/>
<line x1="451.6" y1="340.0" x2="465.3" y2="299.8" stroke="#8b949e" stroke-opacity="0.8" stroke-width="4"/>
<line x1="422.8" y1="299.0" x2="465.3" y2="299.8" stroke="#8b949e" stroke-opacity="0.8" stroke-width="4"/>
<line x1="482.9" y1="263.5" x2="451.6" y2="340.0" stroke="#8b949e" stroke-opacity="0.8" stroke-width="4"/>
<line x1="508.4" y1="340.0" x2="482.9" y2="263.5" stroke="#8b949e" stroke-opacity="0.8" stroke-width="4"/>
<line x1="508.4" y1="340.0" x2="540.0" y2="294.7" stroke="#8b949e" stroke-opacity="0.8" stroke-width="4"/>
<line x1="422.8" y1="299.0" x2="451.6" y2="340.0" stroke="#8b949e" stroke-opacity="0.65" stroke-width="4"/>
<line x1="508.4" y1="340.0" x2="465.3" y2="299.8" stroke="#8b949e" stroke-opacity="0.6" stroke-width="4"/>
<line x1="540.0" y1="93.9" x2="436.8" y2="60.0" stroke="#8b949e" stroke-opacity="0.4" stroke-width="2.5"/>
<line x1="508.4" y1="340.0" x2="451.6" y2="340.0" stroke="#8b949e" stroke-opacity="0.35" stroke-width="2"/>
<line x1="482.9" y1="263.5" x2="540.0" y2="60.0" stroke="#8b949e" stroke-opacity="0.35" stroke-width="2"/>
<line x1="482.9" y1="263.5" x2="398.7" y2="209.2" stroke="#8b949e" stroke-opacity="0.35" stroke-width="2"/>
<line x1="121.1" y1="340.0" x2="176.0" y2="340.0" stroke="#8b949e" stroke-opacity="0.35" stroke-width="2"/>
<line x1="482.9" y1="263.5" x2="540.0" y2="340.0" stroke="#8b949e" stroke-opacity="0.30000000000000004" stroke-width="1.5"/>
<line x1="465.3" y1="299.8" x2="398.7" y2="209.2" stroke="#8b949e" stroke-opacity="0.30000000000000004" stroke-width="1.5"/>
<line x1="508.4" y1="340.0" x2="422.8" y2="299.0" stroke="#8b949e" stroke-opacity="0.30000000000000004" stroke-width="1.5"/>
<line x1="482.9" y1="263.5" x2="540.0" y2="294.7" stroke="#8b949e" stroke-opacity="0.25" stroke-width="1"/>
<line x1="422.8" y1="299.0" x2="398.7" y2="209.2" stroke="#8b949e" stroke-opacity="0.25" stroke-width="1"/>
<line x1="508.4" y1="340.0" x2="540.0" y2="340.0" stroke="#8b949e" stroke-opacity="0.25" stroke-width="1"/>
<line x1="79.2" y1="340.0" x2="176.0" y2="340.0" stroke="#8b949e" stroke-opacity="0.25" stroke-width="1"/>
<line x1="121.1" y1="340.0" x2="79.2" y2="340.0" stroke="#8b949e" stroke-opacity="0.25" stroke-width="1"/>
<circle cx="482.9" cy="263.5" r="18" fill="#e74c3c" opacity="0.85"/>
<text x="482.9" y="242.5" text-anchor="middle" font-family="sans-serif" font-size="9" fill="#c9d1d9" opacity="0.9">Featured</text>
<circle cx="465.3" cy="299.8" r="18" fill="#3498db" opacity="0.85"/>
<text x="465.3" y="278.8" text-anchor="middle" font-family="sans-serif" font-size="9" fill="#c9d1d9" opacity="0.9">Ideas</text>
<circle cx="508.4" cy="340.0" r="15.600000000000001" fill="#2ecc71" opacity="0.85"/>
<text x="508.4" y="321.4" text-anchor="middle" font-family="sans-serif" font-size="9" fill="#c9d1d9" opacity="0.9">Birding</text>
<circle cx="540.0" cy="294.7" r="15.200000000000001" fill="#27ae60" opacity="0.85"/>
<text x="540.0" y="276.5" text-anchor="middle" font-family="sans-serif" font-size="9" fill="#c9d1d9" opacity="0.9">Nature Observations</text>
<circle cx="422.8" cy="299.0" r="14.8" fill="#e67e22" opacity="0.85"/>
<text x="422.8" y="281.2" text-anchor="middle" font-family="sans-serif" font-size="9" fill="#c9d1d9" opacity="0.9">DIY</text>
<circle cx="451.6" cy="340.0" r="12.4" fill="#9b59b6" opacity="0.85"/>
<text x="451.6" y="324.6" text-anchor="middle" font-family="sans-serif" font-size="9" fill="#c9d1d9" opacity="0.9">How-To</text>
<circle cx="540.0" cy="60.0" r="6.4" fill="#e91e63" opacity="0.85"/>
<text x="540.0" y="50.6" text-anchor="middle" font-family="sans-serif" font-size="9" fill="#c9d1d9" opacity="0.9">Music</text>
<circle cx="121.1" cy="340.0" r="6.4" fill="#7f8c8d" opacity="0.85"/>
<text x="121.1" y="330.6" text-anchor="middle" font-family="sans-serif" font-size="9" fill="#c9d1d9" opacity="0.9">3d-printing</text>
<circle cx="540.0" cy="93.9" r="6" fill="#f39c12" opacity="0.85"/>
<text x="540.0" y="84.9" text-anchor="middle" font-family="sans-serif" font-size="9" fill="#c9d1d9" opacity="0.9">Headphones</text>
<circle cx="436.8" cy="60.0" r="6" fill="#d35400" opacity="0.85"/>
<text x="436.8" y="51.0" text-anchor="middle" font-family="sans-serif" font-size="9" fill="#c9d1d9" opacity="0.9">Waxwing Audio</text>
<circle cx="79.2" cy="340.0" r="6" fill="#7f8c8d" opacity="0.85"/>
<text x="79.2" y="331.0" text-anchor="middle" font-family="sans-serif" font-size="9" fill="#c9d1d9" opacity="0.9">hardware</text>
<circle cx="540.0" cy="340.0" r="6" fill="#1abc9c" opacity="0.85"/>
<text x="540.0" y="331.0" text-anchor="middle" font-family="sans-serif" font-size="9" fill="#c9d1d9" opacity="0.9">Photography</text>
<circle cx="398.7" cy="209.2" r="6" fill="#34495e" opacity="0.85"/>
<text x="398.7" y="200.2" text-anchor="middle" font-family="sans-serif" font-size="9" fill="#c9d1d9" opacity="0.9">Reviews</text>
<circle cx="176.0" cy="340.0" r="6" fill="#7f8c8d" opacity="0.85"/>
<text x="176.0" y="331.0" text-anchor="middle" font-family="sans-serif" font-size="9" fill="#c9d1d9" opacity="0.9">maker</text>
<circle cx="497.6" cy="60.0" r="6" fill="#7f8c8d" opacity="0.85"/>
<text x="497.6" y="51.0" text-anchor="middle" font-family="sans-serif" font-size="9" fill="#c9d1d9" opacity="0.9">personal</text>
<circle cx="60.0" cy="60.0" r="6" fill="#7f8c8d" opacity="0.85"/>
<text x="60.0" y="51.0" text-anchor="middle" font-family="sans-serif" font-size="9" fill="#c9d1d9" opacity="0.9">reverse-engineering</text>
<circle cx="60.0" cy="340.0" r="6" fill="#16a085" opacity="0.85"/>
<text x="60.0" y="331.0" text-anchor="middle" font-family="sans-serif" font-size="9" fill="#c9d1d9" opacity="0.9">Fitness</text>
<circle cx="60.0" cy="95.7" r="6" fill="#7f8c8d" opacity="0.85"/>
<text x="60.0" y="86.7" text-anchor="middle" font-family="sans-serif" font-size="9" fill="#c9d1d9" opacity="0.9">zig</text>
<circle cx="138.8" cy="60.0" r="6" fill="#7f8c8d" opacity="0.85"/>
<text x="138.8" y="51.0" text-anchor="middle" font-family="sans-serif" font-size="9" fill="#c9d1d9" opacity="0.9">weeknotes</text>
<circle cx="60.0" cy="187.9" r="6" fill="#7f8c8d" opacity="0.85"/>
<text x="60.0" y="178.9" text-anchor="middle" font-family="sans-serif" font-size="9" fill="#c9d1d9" opacity="0.9">homelab</text>
<text x="300" y="392" text-anchor="middle" font-family="sans-serif" font-size="8" fill="#c9d1d9" opacity="0.5">20 tags, 22 co-occurrence edges (min weight: 2)</text>
</svg>