<svg xmlns="http://www.w3.org/2000/svg" viewBox="0 0 600 400" width="600" height="400">
<rect width="600" height="400" fill="#0d1117" rx="8"/>
<text x="300" y="22" text-anchor="middle" font-family="sans-serif" font-size="12" font-weight="600" fill="#58a6ff">Tag Co-occurrence Network</text>
<line x1="303.4" y1="328.8" x2="266.1" y2="305.2" stroke="#8b949e" stroke-opacity="0.8" stroke-width="4"/>
<line x1="266.6" y1="340.0" x2="303.4" y2="328.8" stroke="#8b949e" stroke-opacity="0.8" stroke-width="4"/>
<line x1="232.8" y1="340.0" x2="266.1" y2="305.2" stroke="#8b949e" stroke-opacity="0.8" stroke-width="4"/>
<line x1="266.6" y1="340.0" x2="266.1" y2="305.2" stroke="#8b949e" stroke-opacity="0.8" stroke-width="4"/>
<line x1="303.4" y1="328.8" x2="232.8" y2="340.0" stroke="#8b949e" stroke-opacity="0.8" stroke-width="4"/>
<line x1="343.8" y1="340.0" x2="303.4" y2="328.8" stroke="#8b949e" stroke-opacity="0.8" stroke-width="4"/>
<line x1="343.8" y1="340.0" x2="409.8" y2="340.0" stroke="#8b949e" stroke-opacity="0.8" stroke-width="4"/>
<line x1="266.6" y1="340.0" x2="232.8" y2="340.0" stroke="#8b949e" stroke-opacity="0.65" stroke-width="4"/>
<line x1="343.8" y1="340.0" x2="266.1" y2="305.2" stroke="#8b949e" stroke-opacity="0.6" stroke-width="4"/>
<line x1="445.5" y1="60.0" x2="540.0" y2="95.4" stroke="#8b949e" stroke-opacity="0.4" stroke-width="2.5"/>
<line x1="343.8" y1="340.0" x2="232.8" y2="340.0" stroke="#8b949e" stroke-opacity="0.35" stroke-width="2"/>
<line x1="303.4" y1="328.8" x2="471.5" y2="340.0" stroke="#8b949e" stroke-opacity="0.35" stroke-width="2"/>
<line x1="303.4" y1="328.8" x2="166.0" y2="340.0" stroke="#8b949e" stroke-opacity="0.35" stroke-width="2"/>
<line x1="506.1" y1="60.0" x2="540.0" y2="60.0" stroke="#8b949e" stroke-opacity="0.35" stroke-width="2"/>
<line x1="303.4" y1="328.8" x2="315.8" y2="192.8" stroke="#8b949e" stroke-opacity="0.30000000000000004" stroke-width="1.5"/>
<line x1="266.1" y1="305.2" x2="166.0" y2="340.0" stroke="#8b949e" stroke-opacity="0.30000000000000004" stroke-width="1.5"/>
<line x1="343.8" y1="340.0" x2="266.6" y2="340.0" stroke="#8b949e" stroke-opacity="0.30000000000000004" stroke-width="1.5"/>
<line x1="303.4" y1="328.8" x2="409.8" y2="340.0" stroke="#8b949e" stroke-opacity="0.25" stroke-width="1"/>
<line x1="266.6" y1="340.0" x2="166.0" y2="340.0" stroke="#8b949e" stroke-opacity="0.25" stroke-width="1"/>
<line x1="343.8" y1="340.0" x2="315.8" y2="192.8" stroke="#8b949e" stroke-opacity="0.25" stroke-width="1"/>
<line x1="540.0" y1="160.7" x2="540.0" y2="60.0" stroke="#8b949e" stroke-opacity="0.25" stroke-width="1"/>
<line x1="506.1" y1="60.0" x2="540.0" y2="160.7" stroke="#8b949e" stroke-opacity="0.25" stroke-width="1"/>
<circle cx="303.4" cy="328.8" r="18" fill="#e74c3c" opacity="0.85"/>
<text x="303.4" y="307.8" text-anchor="middle" font-family="sans-serif" font-size="9" fill="#c9d1d9" opacity="0.9">Featured</text>
<circle cx="266.1" cy="305.2" r="18" fill="#3498db" opacity="0.85"/>
<text x="266.1" y="284.2" text-anchor="middle" font-family="sans-serif" font-size="9" fill="#c9d1d9" opacity="0.9">Ideas</text>
<circle cx="343.8" cy="340.0" r="15.600000000000001" fill="#2ecc71" opacity="0.85"/>
<text x="343.8" y="321.4" text-anchor="middle" font-family="sans-serif" font-size="9" fill="#c9d1d9" opacity="0.9">Birding</text>
<circle cx="409.8" cy="340.0" r="15.200000000000001" fill="#27ae60" opacity="0.85"/>
<text x="409.8" y="321.8" text-anchor="middle" font-family="sans-serif" font-size="9" fill="#c9d1d9" opacity="0.9">Nature Observations</text>
<circle cx="266.6" cy="340.0" r="14.8" fill="#e67e22" opacity="0.85"/>
<text x="266.6" y="322.2" text-anchor="middle" font-family="sans-serif" font-size="9" fill="#c9d1d9" opacity="0.9">DIY</text>
<circle cx="232.8" cy="340.0" r="12.4" fill="#9b59b6" opacity="0.85"/>
<text x="232.8" y="324.6" text-anchor="middle" font-family="sans-serif" font-size="9" fill="#c9d1d9" opacity="0.9">How-To</text>
<circle cx="471.5" cy="340.0" r="6.4" fill="#e91e63" opacity="0.85"/>
<text x="471.5" y="330.6" text-anchor="middle" font-family="sans-serif" font-size="9" fill="#c9d1d9" opacity="0.9">Music</text>
<circle cx="506.1" cy="60.0" r="6.4" fill="#7f8c8d" opacity="0.85"/>
<text x="506.1" y="50.6" text-anchor="middle" font-family="sans-serif" font-size="9" fill="#c9d1d9" opacity="0.9">3d-printing</text>
<circle cx="445.5" cy="60.0" r="6" fill="#f39c12" opacity="0.85"/>
<text x="445.5" y="51.0" text-anchor="middle" font-family="sans-serif" font-size="9" fill="#c9d1d9" opacity="0.9">Headphones</text>
<circle cx="540.0" cy="95.4" r="6" fill="#d35400" opacity="0.85"/>
<text x="540.0" y="86.4" text-anchor="middle" font-family="sans-serif" font-size="9" fill="#c9d1d9" opacity="0.9">Waxwing Audio</text>
<circle cx="540.0" cy="160.7" r="6" fill="#7f8c8d" opacity="0.85"/>
<text x="540.0" y="151.7" text-anchor="middle" font-family="sans-serif" font-size="9" fill="#c9d1d9" opacity="0.9">hardware</text>
<circle cx="315.8" cy="192.8" r="6" fill="#1abc9c" opacity="0.85"/>
<text x="315.8" y="183.8" text-anchor="middle" font-family="sans-serif" font-size="9" fill="#c9d1d9" opacity="0.9">Photography</text>
<circle cx="166.0" cy="340.0" r="6" fill="#34495e" opacity="0.85"/>
<text x="166.0" y="331.0" text-anchor="middle" font-family="sans-serif" font-size="9" fill="#c9d1d9" opacity="0.9">Reviews</text>
<circle cx="540.0" cy="60.0" r="6" fill="#7f8c8d" opacity="0.85"/>
<text x="540.0" y="51.0" text-anchor="middle" font-family="sans-serif" font-size="9" fill="#c9d1d9" opacity="0.9">maker</text>
<circle cx="60.0" cy="60.0" r="6" fill="#7f8c8d" opacity="0.85"/>
<text x="60.0" y="51.0" text-anchor="middle" font-family="sans-serif" font-size="9" fill="#c9d1d9" opacity="0.9">personal</text>
<circle cx="540.0" cy="340.0" r="6" fill="#7f8c8d" opacity="0.85"/>
<text x="540.0" y="331.0" text-anchor="middle" font-family="sans-serif" font-size="9" fill="#c9d1d9" opacity="0.9">reverse-engineering</text>
<circle cx="60.0" cy="83.3" r="6" fill="#16a085" opacity="0.85"/>
<text x="60.0" y="74.3" text-anchor="middle" font-family="sans-serif" font-size="9" fill="#c9d1d9" opacity="0.9">Fitness</text>
<circle cx="60.0" cy="340.0" r="6" fill="#7f8c8d" opacity="0.85"/>
<text x="60.0" y="331.0" text-anchor="middle" font-family="sans-serif" font-size="9" fill="#c9d1d9" opacity="0.9">zig</text>
<circle cx="78.2" cy="340.0" r="6" fill="#7f8c8d" opacity="0.85"/>
<text x="78.2" y="331.0" text-anchor="middle" font-family="sans-serif" font-size="9" fill="#c9d1d9" opacity="0.9">weeknotes</text>
<circle cx="60.0" cy="146.7" r="6" fill="#7f8c8d" opacity="0.85"/>
<text x="60.0" y="137.7" text-anchor="middle" font-family="sans-serif" font-size="9" fill="#c9d1d9" opacity="0.9">homelab</text>
<text x="300" y="392" text-anchor="middle" font-family="sans-serif" font-size="8" fill="#c9d1d9" opacity="0.5">20 tags, 22 co-occurrence edges (min weight: 2)</text>
</svg>