<?xml version="1.0" encoding="UTF-8" standalone="no"?>
<!DOCTYPE svg PUBLIC "-//W3C//DTD SVG 1.1//EN"
 "http://www.w3.org/Graphics/SVG/1.1/DTD/svg11.dtd">
<!-- Generated by graphviz version 12.2.1 (0)
 -->
<!-- Title: bow5_host_probe_pipeline Pages: 1 -->
<svg width="2149pt" height="125pt"
 viewBox="0.00 0.00 2148.75 125.00" xmlns="http://www.w3.org/2000/svg" xmlns:xlink="http://www.w3.org/1999/xlink">
<g id="graph0" class="graph" transform="scale(1 1) rotate(0) translate(4 121)">
<title>bow5_host_probe_pipeline</title>
<polygon fill="white" stroke="none" points="-4,4 -4,-121 2144.75,-121 2144.75,4 -4,4"/>
<text text-anchor="middle" x="1070.38" y="-99.7" font-family="Helvetica,sans-Serif" font-size="14.00">BoW&#45;5 Reproducible Host Probe Pipeline</text>
<!-- flake -->
<g id="node1" class="node">
<title>flake</title>
<path fill="#eaf2ff" stroke="#2b2b2b" d="M184,-66C184,-66 12,-66 12,-66 6,-66 0,-60 0,-54 0,-54 0,-40 0,-40 0,-34 6,-28 12,-28 12,-28 184,-28 184,-28 190,-28 196,-34 196,-40 196,-40 196,-54 196,-54 196,-60 190,-66 184,-66"/>
<text text-anchor="middle" x="98" y="-48.7" font-family="Helvetica,sans-Serif" font-size="14.00">Nix flake</text>
<text text-anchor="middle" x="98" y="-33.7" font-family="Helvetica,sans-Serif" font-size="14.00">Chapel 2.8.0 capture package</text>
</g>
<!-- just_recipe -->
<g id="node2" class="node">
<title>just_recipe</title>
<path fill="#eaf2ff" stroke="#2b2b2b" d="M594.5,-66C594.5,-66 400,-66 400,-66 394,-66 388,-60 388,-54 388,-54 388,-40 388,-40 388,-34 394,-28 400,-28 400,-28 594.5,-28 594.5,-28 600.5,-28 606.5,-34 606.5,-40 606.5,-40 606.5,-54 606.5,-54 606.5,-60 600.5,-66 594.5,-66"/>
<text text-anchor="middle" x="497.25" y="-48.7" font-family="Helvetica,sans-Serif" font-size="14.00">just recipe</text>
<text text-anchor="middle" x="497.25" y="-33.7" font-family="Helvetica,sans-Serif" font-size="14.00">chapel&#45;host&#45;capture&#45;live&#45;on&#45;target</text>
</g>
<!-- flake&#45;&gt;just_recipe -->
<g id="edge1" class="edge">
<title>flake&#45;&gt;just_recipe</title>
<path fill="none" stroke="#4a4a4a" d="M196.43,-47C250.7,-47 318.72,-47 376.25,-47"/>
<polygon fill="#4a4a4a" stroke="#4a4a4a" points="376.1,-50.5 386.1,-47 376.1,-43.5 376.1,-50.5"/>
<text text-anchor="middle" x="292" y="-48.7" font-family="Helvetica,sans-Serif" font-size="14.00">provides compiler/runtime</text>
</g>
<!-- honey -->
<g id="node3" class="node">
<title>honey</title>
<polygon fill="#ddf3e4" stroke="#2b2b2b" points="977.25,-73.5 794.25,-73.5 790.25,-69.5 790.25,-20.5 973.25,-20.5 977.25,-24.5 977.25,-73.5"/>
<polyline fill="none" stroke="#2b2b2b" points="973.25,-69.5 790.25,-69.5"/>
<polyline fill="none" stroke="#2b2b2b" points="973.25,-69.5 973.25,-20.5"/>
<polyline fill="none" stroke="#2b2b2b" points="973.25,-69.5 977.25,-73.5"/>
<text text-anchor="middle" x="883.75" y="-56.2" font-family="Helvetica,sans-Serif" font-size="14.00">honey</text>
<text text-anchor="middle" x="883.75" y="-41.2" font-family="Helvetica,sans-Serif" font-size="14.00">Dell T7810</text>
<text text-anchor="middle" x="883.75" y="-26.2" font-family="Helvetica,sans-Serif" font-size="14.00">6.19.5&#45;7.xr.el10 generic lane</text>
</g>
<!-- just_recipe&#45;&gt;honey -->
<g id="edge2" class="edge">
<title>just_recipe&#45;&gt;honey</title>
<path fill="none" stroke="#4a4a4a" d="M606.89,-47C660.68,-47 725.32,-47 778.5,-47"/>
<polygon fill="#4a4a4a" stroke="#4a4a4a" points="778.5,-50.5 788.5,-47 778.5,-43.5 778.5,-50.5"/>
<text text-anchor="middle" x="698.38" y="-48.7" font-family="Helvetica,sans-Serif" font-size="14.00">stages + builds on target</text>
</g>
<!-- probe -->
<g id="node4" class="node">
<title>probe</title>
<path fill="#ddf3e4" stroke="#2b2b2b" d="M1219.75,-73.5C1219.75,-73.5 1051.5,-73.5 1051.5,-73.5 1045.5,-73.5 1039.5,-67.5 1039.5,-61.5 1039.5,-61.5 1039.5,-32.5 1039.5,-32.5 1039.5,-26.5 1045.5,-20.5 1051.5,-20.5 1051.5,-20.5 1219.75,-20.5 1219.75,-20.5 1225.75,-20.5 1231.75,-26.5 1231.75,-32.5 1231.75,-32.5 1231.75,-61.5 1231.75,-61.5 1231.75,-67.5 1225.75,-73.5 1219.75,-73.5"/>
<text text-anchor="middle" x="1135.62" y="-56.2" font-family="Helvetica,sans-Serif" font-size="14.00">HostNumaProbe.chpl</text>
<text text-anchor="middle" x="1135.62" y="-41.2" font-family="Helvetica,sans-Serif" font-size="14.00">94 lines</text>
<text text-anchor="middle" x="1135.62" y="-26.2" font-family="Helvetica,sans-Serif" font-size="14.00">100 channels / 2500 samples</text>
</g>
<!-- honey&#45;&gt;probe -->
<g id="edge3" class="edge">
<title>honey&#45;&gt;probe</title>
<path fill="none" stroke="#4a4a4a" d="M977.44,-47C993.8,-47 1010.96,-47 1027.67,-47"/>
<polygon fill="#4a4a4a" stroke="#4a4a4a" points="1027.65,-50.5 1037.65,-47 1027.65,-43.5 1027.65,-50.5"/>
<text text-anchor="middle" x="1008.38" y="-48.7" font-family="Helvetica,sans-Serif" font-size="14.00">runs</text>
</g>
<!-- raw_capture -->
<g id="node5" class="node">
<title>raw_capture</title>
<polygon fill="#fff0d6" stroke="#2b2b2b" points="1492.25,-73.5 1300.75,-73.5 1300.75,-20.5 1498.25,-20.5 1498.25,-67.5 1492.25,-73.5"/>
<polyline fill="none" stroke="#2b2b2b" points="1492.25,-73.5 1492.25,-67.5"/>
<polyline fill="none" stroke="#2b2b2b" points="1498.25,-67.5 1492.25,-67.5"/>
<text text-anchor="middle" x="1399.5" y="-56.2" font-family="Helvetica,sans-Serif" font-size="14.00">raw capture</text>
<text text-anchor="middle" x="1399.5" y="-41.2" font-family="Helvetica,sans-Serif" font-size="14.00">chapel&#45;host&#45;probe&#45;baseline.txt</text>
<text text-anchor="middle" x="1399.5" y="-26.2" font-family="Helvetica,sans-Serif" font-size="14.00">chapel&#45;host&#45;probe&#45;turnkey.txt</text>
</g>
<!-- probe&#45;&gt;raw_capture -->
<g id="edge4" class="edge">
<title>probe&#45;&gt;raw_capture</title>
<path fill="none" stroke="#4a4a4a" d="M1231.91,-47C1250.53,-47 1270.18,-47 1289.21,-47"/>
<polygon fill="#4a4a4a" stroke="#4a4a4a" points="1289.13,-50.5 1299.13,-47 1289.13,-43.5 1289.13,-50.5"/>
<text text-anchor="middle" x="1266.25" y="-48.7" font-family="Helvetica,sans-Serif" font-size="14.00">emits</text>
</g>
<!-- dhall_record -->
<g id="node6" class="node">
<title>dhall_record</title>
<polygon fill="#fff0d6" stroke="#2b2b2b" points="1947.75,-94 1627.25,-94 1627.25,-56 1953.75,-56 1953.75,-88 1947.75,-94"/>
<polyline fill="none" stroke="#2b2b2b" points="1947.75,-94 1947.75,-88"/>
<polyline fill="none" stroke="#2b2b2b" points="1953.75,-88 1947.75,-88"/>
<text text-anchor="middle" x="1790.5" y="-76.7" font-family="Helvetica,sans-Serif" font-size="14.00">Dhall record</text>
<text text-anchor="middle" x="1790.5" y="-61.7" font-family="Helvetica,sans-Serif" font-size="14.00">honey&#45;chapel&#45;host&#45;probe&#45;baseline&#45;2026&#45;04&#45;23.dhall</text>
</g>
<!-- raw_capture&#45;&gt;dhall_record -->
<g id="edge5" class="edge">
<title>raw_capture&#45;&gt;dhall_record</title>
<path fill="none" stroke="#4a4a4a" d="M1498.66,-54.07C1534.25,-56.63 1575.6,-59.6 1615.76,-62.49"/>
<polygon fill="#4a4a4a" stroke="#4a4a4a" points="1615.31,-65.97 1625.54,-63.2 1615.81,-58.99 1615.31,-65.97"/>
<text text-anchor="middle" x="1562.75" y="-63.54" font-family="Helvetica,sans-Serif" font-size="14.00">projects</text>
</g>
<!-- result_note -->
<g id="node7" class="node">
<title>result_note</title>
<polygon fill="#f4e8ff" stroke="#2b2b2b" points="1912.5,-38 1662.5,-38 1662.5,0 1918.5,0 1918.5,-32 1912.5,-38"/>
<polyline fill="none" stroke="#2b2b2b" points="1912.5,-38 1912.5,-32"/>
<polyline fill="none" stroke="#2b2b2b" points="1918.5,-32 1912.5,-32"/>
<text text-anchor="middle" x="1790.5" y="-20.7" font-family="Helvetica,sans-Serif" font-size="14.00">result note</text>
<text text-anchor="middle" x="1790.5" y="-5.7" font-family="Helvetica,sans-Serif" font-size="14.00">honey&#45;chapel&#45;live&#45;result&#45;2026&#45;04&#45;23.md</text>
</g>
<!-- raw_capture&#45;&gt;result_note -->
<g id="edge6" class="edge">
<title>raw_capture&#45;&gt;result_note</title>
<path fill="none" stroke="#4a4a4a" d="M1498.69,-38.38C1504.63,-37.9 1510.52,-37.44 1516.25,-37 1559.98,-33.67 1607.68,-30.4 1650.81,-27.59"/>
<polygon fill="#4a4a4a" stroke="#4a4a4a" points="1650.99,-31.08 1660.75,-26.94 1650.54,-24.1 1650.99,-31.08"/>
<text text-anchor="middle" x="1562.75" y="-38.7" font-family="Helvetica,sans-Serif" font-size="14.00">summarized by</text>
</g>
<!-- paper_blog -->
<g id="node8" class="node">
<title>paper_blog</title>
<path fill="#fdedee" stroke="#2b2b2b" d="M2128.75,-66C2128.75,-66 2029.5,-66 2029.5,-66 2023.5,-66 2017.5,-60 2017.5,-54 2017.5,-54 2017.5,-40 2017.5,-40 2017.5,-34 2023.5,-28 2029.5,-28 2029.5,-28 2128.75,-28 2128.75,-28 2134.75,-28 2140.75,-34 2140.75,-40 2140.75,-40 2140.75,-54 2140.75,-54 2140.75,-60 2134.75,-66 2128.75,-66"/>
<text text-anchor="middle" x="2079.12" y="-48.7" font-family="Helvetica,sans-Serif" font-size="14.00">paper/blog packet</text>
<text text-anchor="middle" x="2079.12" y="-33.7" font-family="Helvetica,sans-Serif" font-size="14.00">BoW&#45;2 + BoW&#45;5</text>
</g>
<!-- dhall_record&#45;&gt;paper_blog -->
<g id="edge7" class="edge">
<title>dhall_record&#45;&gt;paper_blog</title>
<path fill="none" stroke="#4a4a4a" d="M1954.07,-59.12C1972.07,-57.36 1989.65,-55.64 2005.66,-54.08"/>
<polygon fill="#4a4a4a" stroke="#4a4a4a" points="2005.9,-57.57 2015.52,-53.12 2005.22,-50.61 2005.9,-57.57"/>
<text text-anchor="middle" x="1985.62" y="-58.56" font-family="Helvetica,sans-Serif" font-size="14.00">cites</text>
</g>
<!-- result_note&#45;&gt;paper_blog -->
<g id="edge8" class="edge">
<title>result_note&#45;&gt;paper_blog</title>
<path fill="none" stroke="#4a4a4a" d="M1918.94,-28.25C1945.58,-30.51 1973.48,-33.12 1999.5,-36 2001.66,-36.24 2003.85,-36.49 2006.06,-36.75"/>
<polygon fill="#4a4a4a" stroke="#4a4a4a" points="2005.36,-40.19 2015.71,-37.94 2006.22,-33.24 2005.36,-40.19"/>
<text text-anchor="middle" x="1985.62" y="-37.7" font-family="Helvetica,sans-Serif" font-size="14.00">cites</text>
</g>
</g>
</svg>
