<?xml version="1.0" encoding="UTF-8" standalone="no"?>
<!DOCTYPE svg PUBLIC "-//W3C//DTD SVG 1.1//EN"
 "http://www.w3.org/Graphics/SVG/1.1/DTD/svg11.dtd">
<!-- Generated by graphviz version 12.2.1 (0)
 -->
<!-- Title: bow2_generic_rt_repeat_packet Pages: 1 -->
<svg width="647pt" height="647pt"
 viewBox="0.00 0.00 647.25 647.00" xmlns="http://www.w3.org/2000/svg" xmlns:xlink="http://www.w3.org/1999/xlink">
<g id="graph0" class="graph" transform="scale(1 1) rotate(0) translate(4 643)">
<title>bow2_generic_rt_repeat_packet</title>
<polygon fill="white" stroke="none" points="-4,4 -4,-643 643.25,-643 643.25,4 -4,4"/>
<text text-anchor="middle" x="319.62" y="-621.7" font-family="Helvetica,sans-Serif" font-size="14.00">BoW&#45;2 Generic/RT Repeat Packet: Cautionary Result</text>
<!-- generic -->
<g id="node1" class="node">
<title>generic</title>
<polygon fill="#ddf3e4" stroke="none" points="23.88,-582 23.88,-615 227.12,-615 227.12,-582 23.88,-582"/>
<polygon fill="none" stroke="black" points="23.88,-582 23.88,-615 227.12,-615 227.12,-582 23.88,-582"/>
<text text-anchor="start" x="62.5" y="-593.7" font-family="Helvetica,sans-Serif" font-weight="bold" font-size="14.00">Generic lane repeat</text>
<polygon fill="none" stroke="black" points="23.88,-549 23.88,-582 227.12,-582 227.12,-549 23.88,-549"/>
<text text-anchor="start" x="55.38" y="-559.7" font-family="Helvetica,sans-Serif" font-size="14.00">Kernel: 6.19.5&#45;7.xr.el10</text>
<polygon fill="none" stroke="black" points="23.88,-516 23.88,-549 227.12,-549 227.12,-516 23.88,-516"/>
<text text-anchor="start" x="74.5" y="-526.7" font-family="Helvetica,sans-Serif" font-size="14.00">Realtime: absent</text>
<polygon fill="none" stroke="black" points="23.88,-483 23.88,-516 227.12,-516 227.12,-483 23.88,-483"/>
<text text-anchor="start" x="47.88" y="-493.7" font-family="Helvetica,sans-Serif" font-size="14.00">SMI: 280, 279, 279 / 120s</text>
<polygon fill="none" stroke="black" points="23.88,-450 23.88,-483 227.12,-483 227.12,-450 23.88,-450"/>
<text text-anchor="start" x="63.25" y="-460.7" font-family="Helvetica,sans-Serif" font-size="14.00">hwlat max: 0, 0, 0 us</text>
<polygon fill="none" stroke="black" points="23.88,-417 23.88,-450 227.12,-450 227.12,-417 23.88,-417"/>
<text text-anchor="start" x="33.25" y="-427.7" font-family="Helvetica,sans-Serif" font-size="14.00">Chapel samples: 5 / 5 conform</text>
<polygon fill="none" stroke="black" points="23.88,-384 23.88,-417 227.12,-417 227.12,-384 23.88,-384"/>
<text text-anchor="start" x="59.12" y="-394.7" font-family="Helvetica,sans-Serif" font-size="14.00">Ratio mean: 12.2760x</text>
<polygon fill="none" stroke="black" points="23.88,-351 23.88,-384 227.12,-384 227.12,-351 23.88,-351"/>
<text text-anchor="start" x="64" y="-361.7" font-family="Helvetica,sans-Serif" font-size="14.00">Ratio stdev: 1.8093x</text>
<polygon fill="none" stroke="black" points="23.88,-318 23.88,-351 227.12,-351 227.12,-318 23.88,-318"/>
<text text-anchor="start" x="32.88" y="-328.7" font-family="Helvetica,sans-Serif" font-size="14.00">Ratio range: 9.3375x&#45;14.1814x</text>
<polygon fill="none" stroke="black" points="22.88,-317 22.88,-616 228.12,-616 228.12,-317 22.88,-317"/>
</g>
<!-- claim -->
<g id="node3" class="node">
<title>claim</title>
<polygon fill="#f2f2f2" stroke="none" points="395.25,-357 395.25,-390 638.25,-390 638.25,-357 395.25,-357"/>
<polygon fill="none" stroke="black" points="395.25,-357 395.25,-390 638.25,-390 638.25,-357 395.25,-357"/>
<text text-anchor="start" x="465.38" y="-368.7" font-family="Helvetica,sans-Serif" font-weight="bold" font-size="14.00">Claim boundary</text>
<polygon fill="none" stroke="black" points="395.25,-324 395.25,-357 638.25,-357 638.25,-324 395.25,-324"/>
<text text-anchor="start" x="446.62" y="-334.7" font-family="Helvetica,sans-Serif" font-size="14.00">Repeated packet exists</text>
<polygon fill="none" stroke="black" points="395.25,-291 395.25,-324 638.25,-324 638.25,-291 395.25,-291"/>
<text text-anchor="start" x="437.62" y="-301.7" font-family="Helvetica,sans-Serif" font-size="14.00">No RT improvement claim</text>
<polygon fill="none" stroke="black" points="395.25,-258 395.25,-291 638.25,-291 638.25,-258 395.25,-258"/>
<text text-anchor="start" x="427.88" y="-268.7" font-family="Helvetica,sans-Serif" font-size="14.00">RT does not reduce SMI here</text>
<polygon fill="none" stroke="black" points="395.25,-225 395.25,-258 638.25,-258 638.25,-225 395.25,-225"/>
<text text-anchor="start" x="404.25" y="-235.7" font-family="Helvetica,sans-Serif" font-size="14.00">Downstream C4 benefit still unproved</text>
<polygon fill="none" stroke="black" points="394.25,-224 394.25,-391 639.25,-391 639.25,-224 394.25,-224"/>
</g>
<!-- generic&#45;&gt;claim -->
<g id="edge1" class="edge">
<title>generic&#45;&gt;claim</title>
<path fill="none" stroke="#4a4a4a" d="M228.01,-425.04C275.64,-405.58 333,-382.15 383.93,-361.35"/>
<polygon fill="#4a4a4a" stroke="#4a4a4a" points="385.02,-364.68 392.96,-357.66 382.38,-358.2 385.02,-364.68"/>
<text text-anchor="middle" x="322.62" y="-407.62" font-family="Helvetica,sans-Serif" font-size="14.00">default baseline</text>
</g>
<!-- rt -->
<g id="node2" class="node">
<title>rt</title>
<polygon fill="#ffe1e1" stroke="none" points="1,-265 1,-298 250,-298 250,-265 1,-265"/>
<polygon fill="none" stroke="black" points="1,-265 1,-298 250,-298 250,-265 1,-265"/>
<text text-anchor="start" x="79" y="-276.7" font-family="Helvetica,sans-Serif" font-weight="bold" font-size="14.00">RT lane repeat</text>
<polygon fill="none" stroke="black" points="1,-232 1,-265 250,-265 250,-232 1,-232"/>
<text text-anchor="start" x="45.25" y="-242.7" font-family="Helvetica,sans-Serif" font-size="14.00">Kernel: 6.19.5&#45;rt1&#45;8.xr.el10</text>
<polygon fill="none" stroke="black" points="1,-199 1,-232 250,-232 250,-199 1,-199"/>
<text text-anchor="start" x="91" y="-209.7" font-family="Helvetica,sans-Serif" font-size="14.00">Realtime: 1</text>
<polygon fill="none" stroke="black" points="1,-166 1,-199 250,-199 250,-166 1,-166"/>
<text text-anchor="start" x="47.88" y="-176.7" font-family="Helvetica,sans-Serif" font-size="14.00">SMI: 279, 279, 278 / 120s</text>
<polygon fill="none" stroke="black" points="1,-133 1,-166 250,-166 250,-133 1,-133"/>
<text text-anchor="start" x="59.5" y="-143.7" font-family="Helvetica,sans-Serif" font-size="14.00">hwlat max: 2, 2, 14 us</text>
<polygon fill="none" stroke="black" points="1,-100 1,-133 250,-133 250,-100 1,-100"/>
<text text-anchor="start" x="33.25" y="-110.7" font-family="Helvetica,sans-Serif" font-size="14.00">Chapel samples: 5 / 5 conform</text>
<polygon fill="none" stroke="black" points="1,-67 1,-100 250,-100 250,-67 1,-67"/>
<text text-anchor="start" x="62.88" y="-77.7" font-family="Helvetica,sans-Serif" font-size="14.00">Ratio mean: 9.3204x</text>
<polygon fill="none" stroke="black" points="1,-34 1,-67 250,-67 250,-34 1,-34"/>
<text text-anchor="start" x="64" y="-44.7" font-family="Helvetica,sans-Serif" font-size="14.00">Ratio stdev: 4.6220x</text>
<polygon fill="none" stroke="black" points="1,-1 1,-34 250,-34 250,-1 1,-1"/>
<text text-anchor="start" x="10" y="-11.7" font-family="Helvetica,sans-Serif" font-size="14.00">Outlier: sample 2 collapsed to 1.3617x</text>
<polygon fill="none" stroke="black" points="0,0 0,-299 251,-299 251,0 0,0"/>
</g>
<!-- rt&#45;&gt;claim -->
<g id="edge2" class="edge">
<title>rt&#45;&gt;claim</title>
<path fill="none" stroke="#4a4a4a" d="M251,-200.04C293.43,-217.26 341,-236.57 383.98,-254.02"/>
<polygon fill="#4a4a4a" stroke="#4a4a4a" points="382.53,-257.2 393.12,-257.72 385.17,-250.72 382.53,-257.2"/>
<text text-anchor="middle" x="322.62" y="-249" font-family="Helvetica,sans-Serif" font-size="14.00">experimental lane</text>
</g>
</g>
</svg>
